{"asset":{"version":"2.0","generator":"Blockbench 4.10.0 glTF exporter"},"scenes":[{"nodes":[26],"name":"blockbench_export"}],"scene":0,"nodes":[{"translation":[0,0,0.03125],"name":"head_jaw"},{"translation":[0,0.125,-1.3877787807814457e-17],"name":"head","children":[0]},{"translation":[0,0.1875,1.3877787807814457e-17],"name":"torso_neck","children":[1]},{"translation":[0.09375,1.3322676295501878e-15,4.718447854656915e-16],"name":"left_knuckles"},{"translation":[0.24999999999999978,-2.220446049250313e-16,3.191891195797325e-16],"name":"left_wrist","children":[3]},{"translation":[0.24999999999999803,0,5.967448757360216e-16],"name":"left_arm_lower","children":[4]},{"translation":[0.12500000000000114,-8.215650382226158e-15,-1.3322676295501878e-15],"name":"left_arm_upper","children":[5]},{"translation":[0.06249999999999983,0.12499999999999933,-0.03124999999999998],"name":"left_clavicle","children":[6]},{"translation":[-0.09374999999999933,2.220446049250313e-16,3.469446951953614e-16],"name":"right_knuckles"},{"translation":[-0.25000000000000067,-1.1102230246251565e-15,2.400857290751901e-15],"name":"right_wrist","children":[8]},{"translation":[-0.2500000000000001,-4.440892098500626e-16,1.3183898417423734e-15],"name":"right_arm_lower","children":[9]},{"translation":[-0.12499999999999892,-2.4424906541753444e-15,7.771561172376096e-16],"name":"right_arm_upper","children":[10]},{"translation":[-0.0625,0.12499999999999933,-0.03124999999999998],"name":"right_clavicle","children":[11]},{"translation":[0,0.125,0],"name":"torso_upper_chest","children":[2,7,12]},{"translation":[0,0.125,0],"name":"torso_chest","children":[13]},{"translation":[0,0.0625,0],"name":"torso_spine","children":[14]},{"translation":[-1.6653345369377348e-16,-1.3530843112619095e-16,0.046875],"name":"left_toe"},{"translation":[5.551115123125783e-17,-0.46875,-1.908195823574488e-15],"name":"left_ankle","children":[16]},{"translation":[1.1102230246251565e-16,-0.40625,-1.6583956430338276e-15],"name":"left_knee","children":[17]},{"translation":[0.0625,-0.03125,0.015625000000000444],"name":"left_leg","children":[18]},{"translation":[9.020562075079397e-17,1.457167719820518e-16,0.046875],"name":"right_toe"},{"translation":[4.163336342344337e-17,-0.46875,2.393918396847994e-16],"name":"right_ankle","children":[20]},{"translation":[2.0816681711721685e-17,-0.40625,2.0816681711721685e-16],"name":"right_knee","children":[21]},{"translation":[-0.0625,-0.03125,0.015625000000000222],"name":"right_leg","children":[22]},{"translation":[1.1102230246251565e-16,0.9375,-0.05468749999999996],"name":"hip","children":[15,19,23]},{"name":"char_root","children":[24]},{"translation":[0,0,0.007812500000000382],"name":"char_root","mesh":0,"children":[25],"skin":0}],"bufferViews":[{"buffer":0,"byteOffset":0,"byteLength":10368,"target":34962,"byteStride":12},{"buffer":0,"byteOffset":10368,"byteLength":10368,"target":34962,"byteStride":12},{"buffer":0,"byteOffset":20736,"byteLength":6912,"target":34962,"byteStride":8},{"buffer":0,"byteOffset":27648,"byteLength":6912,"target":34962,"byteStride":8},{"buffer":0,"byteOffset":34560,"byteLength":13824,"target":34962,"byteStride":16},{"buffer":0,"byteOffset":48384,"byteLength":2592,"target":34963},{"buffer":0,"byteOffset":50976,"byteLength":1664}],"buffers":[{"byteLength":52640,"uri":"data:application/octet-stream;base64,"}],"accessors":[{"bufferView":0,"componentType":5126,"count":864,"max":[0.875,1.75,0.1484375],"min":[-0.875,-7.73686670285656e-16,-0.1484375],"type":"VEC3"},{"bufferView":1,"componentType":5126,"count":864,"max":[1,1,1],"min":[-1,-1,-1],"type":"VEC3"},{"bufferView":2,"componentType":5126,"count":864,"max":[0.640380859375,0.624755859375],"min":[0.000244140625,0.000244140625],"type":"VEC2"},{"bufferView":3,"componentType":5123,"count":864,"max":[0,25,0,0],"min":[0,1,0,0],"type":"VEC4"},{"bufferView":4,"componentType":5126,"count":864,"max":[0,1,0,0],"min":[0,1,0,0],"type":"VEC4"},{"bufferView":5,"componentType":5123,"count":1296,"max":[863],"min":[0],"type":"SCALAR"},{"bufferView":6,"componentType":5126,"count":26,"max":[1,0,0,0,0,1,0,0,0,0,1,0,0.78125,0,0.0859375,1],"min":[1,0,0,0,0,1,0,0,0,0,1,0,-0.78125,-1.5625,-0.0078125,1],"type":"MAT4"}],"materials":[{"pbrMetallicRoughness":{"metallicFactor":0,"roughnessFactor":1,"baseColorTexture":{"index":0}},"alphaMode":"MASK","alphaCutoff":0.05,"doubleSided":true}],"textures":[{"sampler":0,"source":0,"name":"texture"}],"samplers":[{"magFilter":9728,"minFilter":9728,"wrapS":33071,"wrapT":33071}],"images":[{"mimeType":"image/png","uri":"data:image/png;base64,"}],"meshes":[{"primitives":[{"mode":4,"attributes":{"POSITION":0,"NORMAL":1,"TEXCOORD_0":2,"JOINTS_0":3,"WEIGHTS_0":4},"indices":5,"material":0}]}],"skins":[{"inverseBindMatrices":6,"joints":[25,24,15,14,13,2,1,0,7,6,5,4,3,12,11,10,9,8,19,18,17,16,23,22,21,20],"skeleton":25}]}